<?xml version="1.0" encoding="UTF-8" standalone="no"?>
<svg xmlns="http://www.w3.org/2000/svg" viewBox="0 0 24 24"><title>Check Location</title><g id="Check_Location" data-name="Check Location"><path d="M14.15,6.15,11,9.29,9.85,8.15a.5.5,0,0,0-.71.71l1.5,1.5a.5.5,0,0,0,.71,0l3.5-3.5a.5.5,0,0,0-.71-.71Z" style="fill:#303c42"/><path d="M12,0A8,8,0,0,0,5,11.8l6.6,11.94a.5.5,0,0,0,.87,0L19,11.8A8,8,0,0,0,12,0Zm0,13.5A5.5,5.5,0,1,1,17.5,8,5.51,5.51,0,0,1,12,13.5Z" style="fill:#303c42"/></g>
	<metadata>
		<rdf:RDF xmlns:rdf="http://www.w3.org/1999/02/22-rdf-syntax-ns#" xmlns:rdfs="http://www.w3.org/2000/01/rdf-schema#" xmlns:dc="http://purl.org/dc/elements/1.1/">
			<rdf:Description about="https://iconscout.com/legal#licenses" dc:title="map; location; pin; geolocation; check" dc:description="map; location; pin; geolocation; check" dc:publisher="Iconscout" dc:date="2017-02-21" dc:format="image/svg+xml" dc:language="en">
				<dc:creator>
					<rdf:Bag>
						<rdf:li>Alpár - Etele Méder</rdf:li>
					</rdf:Bag>
				</dc:creator>
			</rdf:Description>
		</rdf:RDF>
    </metadata></svg>
