<svg xmlns="http://www.w3.org/2000/svg" xmlns:xlink="http://www.w3.org/1999/xlink" width="24" height="24" x="0" y="0" version="1.1" viewBox="0 0 24 24" xml:space="preserve"><path id="Frames-24px" fill="none" d="M0 0h24v24H0z"/><g id="Outline" fill="#757575"><path d="M19.989 22.469a45.509 45.509 0 0 1-2.463-4.467h2.477v-2h-16v2H6.48a45.718 45.718 0 0 1-2.463 4.467 1 1 0 0 0 .845 1.534h3.142c0-2.209.791-4 3-4h2c2.209 0 3 1.791 3 4h3.142a.998.998 0 0 0 .843-1.534z"/><path d="M13.003 5.002v-2l-1-2-1 2v2a78.27 78.27 0 0 1-1.083 4h4.165a78.982 78.982 0 0 1-1.082-4z"/><path d="M10.253 15.002l.75-3h2l.75 3h2.43a57.496 57.496 0 0 1-1.127-3h.948v-2h-8v2h.948a58.414 58.414 0 0 1-1.127 3h2.428z"/></g><metadata><rdf:RDF xmlns:dc="http://purl.org/dc/elements/1.1/" xmlns:rdf="http://www.w3.org/1999/02/22-rdf-syntax-ns#" xmlns:rdfs="http://www.w3.org/2000/01/rdf-schema#"><rdf:Description about="https://iconscout.com/legal#licenses" dc:date="2017-09-21" dc:description="places,eiffel,tower" dc:format="image/svg+xml" dc:language="en" dc:publisher="Iconscout" dc:title="places,eiffel,tower"><dc:creator><rdf:Bag><rdf:li>Vincent Le Moign</rdf:li></rdf:Bag></dc:creator></rdf:Description></rdf:RDF></metadata></svg>