<svg id="SvgjsSvg1015" width="288" height="288" xmlns="http://www.w3.org/2000/svg" version="1.1" xmlns:xlink="http://www.w3.org/1999/xlink" xmlns:svgjs="http://svgjs.com/svgjs"><defs id="SvgjsDefs1016"></defs><g id="SvgjsG1017" transform="matrix(0.916700005531311,0,0,0.916700005531311,11.995199203491211,11.996663093566895)"><!--?xml version="1.0" encoding="UTF-8"?--><svg xmlns="http://www.w3.org/2000/svg" xmlns:xlink="http://www.w3.org/1999/xlink" version="1.1" x="0px" y="0px" width="288" height="288" viewBox="0 0 24 24" xml:space="preserve"><path fill="none" d="M0 0h24v24H0z" id="Frames-24px"></path><g fill="#757575" id="Outline" class="color757575 svgShape"><path d="M19.989 22.469a45.509 45.509 0 0 1-2.463-4.467h2.477v-2h-16v2H6.48a45.718 45.718 0 0 1-2.463 4.467 1 1 0 0 0 .845 1.534h3.142c0-2.209.791-4 3-4h2c2.209 0 3 1.791 3 4h3.142a.998.998 0 0 0 .843-1.534z" fill="#1556e9" class="color000 svgShape"></path><path d="M13.003 5.002v-2l-1-2-1 2v2a78.27 78.27 0 0 1-1.083 4h4.165a78.982 78.982 0 0 1-1.082-4z" fill="#1556e9" class="color000 svgShape"></path><path d="M10.253 15.002l.75-3h2l.75 3h2.43a57.496 57.496 0 0 1-1.127-3h.948v-2h-8v2h.948a58.414 58.414 0 0 1-1.127 3h2.428z" fill="#1556e9" class="color000 svgShape"></path></g><metadata><rdf:rdf xmlns:rdf="http://www.w3.org/1999/02/22-rdf-syntax-ns#" xmlns:rdfs="http://www.w3.org/2000/01/rdf-schema#" xmlns:dc="http://purl.org/dc/elements/1.1/"><rdf:description about="https://iconscout.com/legal#licenses" dc:title="places,eiffel,tower" dc:description="places,eiffel,tower" dc:publisher="Iconscout" dc:date="2017-09-21" dc:format="image/svg+xml" dc:language="en"><dc:creator><rdf:bag><rdf:li>Vincent Le Moign</rdf:li></rdf:bag></dc:creator></rdf:description></rdf:rdf></metadata></svg></g></svg>